<?xml version="1.0" encoding="UTF-8" standalone="no"?>
<svg
   xmlns:dc="http://purl.org/dc/elements/1.1/"
   xmlns:cc="http://creativecommons.org/ns#"
   xmlns:rdf="http://www.w3.org/1999/02/22-rdf-syntax-ns#"
   xmlns:svg="http://www.w3.org/2000/svg"
   xmlns="http://www.w3.org/2000/svg"
   height="50"
   width="50"
   id="svg12"
   xml:space="preserve"
   viewBox="1 -1 50 50"
   y="0px"
   x="0px"
   version="1.1"><metadata
     id="metadata18"><rdf:RDF><cc:Work
         rdf:about=""><dc:format>image/svg+xml</dc:format><dc:type
           rdf:resource="http://purl.org/dc/dcmitype/StillImage" /><dc:title></dc:title></cc:Work></rdf:RDF></metadata><defs
     id="defs16" /><g
     transform="matrix(0.56335206,0,0,0.56335206,-2.7309551,-3.6042509)"
     id="g6"><polygon
       id="polygon2"
       points="69.3,60.6 57.6,49 69.3,37.4 62.6,30.7 51,42.4 39.4,30.7 32.7,37.4 44.4,49 32.7,60.6 39.4,67.3 51,55.6 62.6,67.3 " /><path
       id="path4"
       d="M 51,7.4 C 28,7.4 9.4,26 9.4,49 9.4,72 28,90.6 51,90.6 74,90.6 92.6,72 92.6,49 92.6,26 74,7.4 51,7.4 Z m 0,74 C 33.1,81.4 18.6,66.8 18.6,49 18.6,31.2 33.1,16.6 51,16.6 68.9,16.6 83.4,31.1 83.4,49 83.4,66.9 68.9,81.4 51,81.4 Z" /></g><path
     transform="translate(1,-1)"
     id="path828"
     d="M 21.929599,42.881434 C 13.755457,41.32834 7.7145932,34.800393 6.9684182,26.713909 6.140958,17.74652 11.796815,9.8097351 20.770158,7.3461217 c 2.045151,-0.5614921 6.415805,-0.5591788 8.492559,0.0045 6.526402,1.7714002 11.229395,6.3008453 13.205275,12.7179813 0.468803,1.522544 0.506733,1.891031 0.506733,4.922842 0,3.03181 -0.03793,3.400297 -0.506733,4.922841 -0.989099,3.212332 -2.542075,5.770784 -4.911814,8.091968 -2.301381,2.254231 -4.977808,3.743973 -8.280965,4.60932 -1.908951,0.500098 -5.440145,0.627905 -7.345614,0.265865 z m 6.364353,-10.679945 3.273611,3.277623 1.966266,-1.966266 1.966266,-1.966266 -3.273556,-3.277571 -3.273556,-3.277569 3.272342,-3.276355 3.272343,-3.276356 -1.866359,-1.873389 c -1.026498,-1.030365 -1.953139,-1.87339 -2.059203,-1.87339 -0.106065,0 -1.623574,1.432591 -3.372246,3.183536 l -3.179405,3.183535 -3.187439,-3.183535 c -1.753092,-1.750945 -3.272411,-3.183536 -3.376265,-3.183536 -0.103853,0 -1.028687,0.843025 -2.055184,1.87339 l -1.866361,1.873389 3.272343,3.276356 3.272342,3.276355 -3.272426,3.27644 -3.272427,3.276438 1.960965,1.967661 1.960965,1.967661 3.281688,-3.277887 3.281687,-3.27789 z"
     style="opacity:1;fill:#ffffff;fill-opacity:0.98431373;stroke:none;stroke-width:0.70776737;stroke-miterlimit:4;stroke-dasharray:none;stroke-dashoffset:0;stroke-opacity:1;paint-order:markers stroke fill" /></svg>