<?xml version="1.0" encoding="UTF-8" standalone="no"?>
<svg
   xmlns:dc="http://purl.org/dc/elements/1.1/"
   xmlns:cc="http://creativecommons.org/ns#"
   xmlns:rdf="http://www.w3.org/1999/02/22-rdf-syntax-ns#"
   xmlns:svg="http://www.w3.org/2000/svg"
   xmlns="http://www.w3.org/2000/svg"
   height="14"
   width="14"
   id="svg8"
   version="1.1"
   y="0px"
   x="0px"
   viewBox="0 0 14 14">
  <metadata
     id="metadata14">
    <rdf:RDF>
      <cc:Work
         rdf:about="">
        <dc:format>image/svg+xml</dc:format>
        <dc:type
           rdf:resource="http://purl.org/dc/dcmitype/StillImage" />
        <dc:title></dc:title>
      </cc:Work>
    </rdf:RDF>
  </metadata>
  <defs
     id="defs12" />
  <g
     style="fill:#ffffff"
     transform="matrix(0.62729079,0,0,0.69596496,-104.62811,-67.675034)"
     id="g845">
    <g
       style="fill:#ffffff"
       transform="matrix(0.85836523,0,0,0.83981403,23.001864,55.691442)"
       id="g827">
      <path
         style="clip-rule:evenodd;fill-rule:evenodd;stroke-width:0.53835601;fill:#ffffff"
         d="m 189.7522,71.287877 h -9.34828 c -0.89031,0 -1.55805,-0.677111 -1.55805,-1.458393 0,-0.833368 0.72339,-1.458394 1.55805,-1.458394 h 9.34828 c 0.89032,0 1.55805,0.677112 1.55805,1.458394 0,0.833367 -0.66773,1.458393 -1.55805,1.458393 z m -11.85228,-6.041914 -6.00961,5.62523 c -0.61209,0.572941 -1.55804,0.572941 -2.1145,0 -0.61208,-0.57294 -0.27821,-1.979248 0.27823,-2.500103 l 4.95236,-4.375178 -5.23059,-4.896035 c -0.61208,-0.57294 -0.61208,-1.458393 0,-1.979248 0.61209,-0.572939 1.72499,-0.520854 2.28143,0.05209 l 5.84268,5.573144 c 0.61209,0.677112 0.89031,1.718821 0,2.500103 z"
         id="path825" />
    </g>
  </g>
</svg>
