<?xml version="1.0" encoding="UTF-8" standalone="no"?>
<svg
   xmlns:dc="http://purl.org/dc/elements/1.1/"
   xmlns:cc="http://creativecommons.org/ns#"
   xmlns:rdf="http://www.w3.org/1999/02/22-rdf-syntax-ns#"
   xmlns:svg="http://www.w3.org/2000/svg"
   xmlns="http://www.w3.org/2000/svg"
   height="100"
   width="100"
   id="svg12"
   version="1.1"
   y="0px"
   x="0px"
   viewBox="0 0 100 100"
   data-name="Layer 1">
  <metadata
     id="metadata18">
    <rdf:RDF>
      <cc:Work
         rdf:about="">
        <dc:format>image/svg+xml</dc:format>
        <dc:type
           rdf:resource="http://purl.org/dc/dcmitype/StillImage" />
        <dc:title>UI3</dc:title>
      </cc:Work>
    </rdf:RDF>
  </metadata>
  <defs
     id="defs16" />
  <title
     id="title2">UI3</title>
  <g
     style="fill:#ffffff"
     transform="translate(9.0074716,16.025328)"
     id="g4533">
    <path
       d="m 37.715566,53.099372 a 22.211189,22.211189 0 1 1 22.039009,-22.194791 21.735645,21.735645 0 0 1 -0.319762,3.74696 l 12.462535,12.544525 a 1.5742149,1.5742149 0 0 0 0.09839,-0.204976 Q 73.1682,43.785267 74.324264,40.571245 A 1.0412776,1.0412776 0 0 0 73.791325,39.316792 C 71.938343,37.939354 70.09356,36.553717 68.232379,35.217274 a 1.6398072,1.6398072 0 0 1 -0.729715,-1.639807 c 0.08199,-0.639525 0.114787,-1.295448 0.139384,-1.943172 a 1.3200448,1.3200448 0 0 1 0.819904,-1.221656 c 1.992365,-1.000282 3.99293,-2.000565 5.968898,-3.025444 a 5.5097523,5.5097523 0 0 0 0.910093,-0.77071 v -0.737913 c -0.237772,-1.01668 -0.491942,-2.025162 -0.721515,-3.050041 -0.229573,-1.02488 -0.500142,-2.29573 -0.746113,-3.443596 A 1.0330786,1.0330786 0 0 0 72.766446,18.417449 C 70.446118,18.261668 68.13399,18.105886 65.821862,17.974701 A 1.4676275,1.4676275 0 0 1 64.444424,17.113802 C 64.198453,16.613661 63.927885,16.121719 63.62452,15.637976 a 1.4430304,1.4430304 0 0 1 0,-1.582414 c 1.164263,-1.951371 2.312128,-3.919139 3.459994,-5.8787089 A 1.0986708,1.0986708 0 0 0 66.887737,6.5370459 L 62.320874,1.8389982 A 1.0412776,1.0412776 0 0 0 60.746659,1.6176242 C 58.770691,2.716295 56.786524,3.8149659 54.818755,4.9464329 a 1.5086226,1.5086226 0 0 1 -1.713598,0 C 52.670608,4.6676656 52.203263,4.4216946 51.744117,4.1675244 A 1.4102342,1.4102342 0 0 1 51.047199,2.8392806 c -0.06559,-2.26293398 -0.147583,-4.5258679 -0.229573,-6.7888019 0,-1.0740737 -0.180379,-1.2380545 -1.238055,-1.4922246 l -5.936102,-1.4266323 a 1.7545937,1.7545937 0 0 1 -0.319762,-0.1311846 h -0.737913 a 8.5024005,8.5024005 0 0 0 -0.721516,0.9920834 c -1.041277,1.9103754 -2.066157,3.8207508 -3.066439,5.7393253 a 1.3200448,1.3200448 0 0 1 -1.418433,0.89369494 11.044102,11.044102 0 0 0 -1.721798,0.0737913 1.4020352,1.4020352 0 0 1 -1.369239,-0.68052 Q 32.328799,-2.8426514 30.352832,-5.7205131 c -0.483743,-0.7133162 -0.819904,-0.8199036 -1.582414,-0.5411364 l -6.083685,2.1153513 a 0.9756853,0.9756853 0 0 0 -0.819904,1.2134574 c 0.155782,2.09895321 0.278768,4.2061055 0.500142,6.2968597 A 2.0169629,2.0169629 0 0 1 21.317494,5.6925452 9.1255272,9.1255272 0 0 0 19.98925,6.6108372 1.5004236,1.5004236 0 0 1 18.349443,6.7748179 L 12.027986,4.1347283 C 11.208082,3.8067668 10.929315,3.8805582 10.388179,4.5446801 L 6.5592289,9.3493153 c -0.5329374,0.6641217 -0.5411364,0.9428887 0,1.6398067 1.3364429,1.770992 2.6646867,3.558382 4.0175281,5.321175 a 1.4922246,1.4922246 0 0 1 0.229573,1.639807 c -0.385355,0.819904 -0.713317,1.680803 -1.0576761,2.525303 A 1.369239,1.369239 0 0 1 8.625386,21.377301 C 6.362452,21.779054 4.1077171,22.197205 1.8447831,22.615356 1.0248795,22.762938 0.75431132,22.992511 0.64772385,23.878007 0.45914602,25.517814 0.27876723,27.116627 0.0901894,28.740036 A 3.181226,3.181226 0 0 1 0,29.141788 v 1.689002 l 4.0257267,1.44303 c 1.0576757,0.385355 2.1153514,0.819904 3.1894251,1.172462 a 1.4020352,1.4020352 0 0 1 0.9838843,1.205259 c 0.1721798,1.033078 0.3689566,2.074356 0.5657335,3.107434 a 1.5496178,1.5496178 0 0 1 -0.5411364,1.541419 c -1.6644043,1.541419 -3.3042115,3.107435 -4.9440188,4.665252 a 1.0658747,1.0658747 0 0 0 -0.2705681,1.574215 c 0.8854959,1.729996 1.7709918,3.468192 2.6564877,5.18999 0.3525585,0.696918 0.6395248,0.819903 1.3856371,0.672321 2.2383368,-0.508341 4.4848729,-1.000283 6.7232099,-1.525021 a 1.2954477,1.2954477 0 0 1 1.328244,0.393554 l 2.45971,2.582696 a 1.369239,1.369239 0 0 1 0.368957,1.393836 c -0.590331,2.271133 -1.156064,4.550465 -1.721798,6.829797 a 0.9756853,0.9756853 0 0 0 0.557535,1.303647 l 5.140796,2.927056 a 0.99208337,0.99208337 0 0 0 1.44303,-0.204976 c 1.639807,-1.639807 3.214022,-3.279615 4.804635,-4.919422 a 1.4840255,1.4840255 0 0 1 1.549618,-0.475544 c 1.082273,0.262369 2.172744,0.50834 3.279614,0.737913 a 1.4102342,1.4102342 0 0 1 1.131467,1.02488 c 0.688719,2.115351 1.402035,4.222503 2.074356,6.346054 a 1.8611812,1.8611812 0 0 0 0.762511,1.074074 h 2.615492 l 2.738478,-0.319763 1.02488,-0.139383 c 0.778908,-0.07379 1.049476,-0.303365 1.205258,-1.065875 0.467345,-2.230138 0.942889,-4.460276 1.385637,-6.690414 a 1.582414,1.582414 0 0 1 1.10687,-1.262651 l 1.270851,-0.459146 -6.198472,-6.247666 a 21.752043,21.752043 0 0 1 -4.386484,0.393554 z"
       id="path4"
       style="stroke-width:0.81990361;fill:#ffffff" />
    <path
       d="m 80.350554,65.586504 c -2.72208,-2.763075 -5.468757,-5.517951 -8.199036,-8.272827 L 71.208629,56.362588 C 68.297971,53.427333 65.403711,50.47568 62.493053,47.540425 59.320026,44.351 56.130601,41.177973 52.965773,37.980349 a 7.0675691,7.0675691 0 0 1 -2.131749,-5.86231 c 0,-0.295166 0,-0.590331 0.05739,-0.885496 A 13.823575,13.823575 0 0 0 50.78483,28.633448 C 49.817343,21.360903 42.10205,16.334894 35.124671,18.507639 c -0.877297,0.270568 -0.93469,0.467345 -0.286967,1.123268 l 4.796437,4.812834 a 3.9191393,3.9191393 0 0 1 0.04919,5.829514 c -0.606729,0.623127 -1.229856,1.246254 -1.844783,1.869381 -1.902177,1.934972 -4.197907,1.926773 -6.091884,0 -1.492225,-1.508623 -2.992648,-3.017246 -4.501271,-4.50947 -0.557534,-0.549336 -0.729714,-0.491942 -0.951088,0.245971 a 10.060217,10.060217 0 0 0 -0.295165,2.713881 12.298554,12.298554 0 0 0 6.395248,11.027703 12.446137,12.446137 0 0 0 6.641219,1.516822 h 0.541136 a 6.7232096,6.7232096 0 0 1 5.181791,2.090754 c 1.934973,1.951371 3.878144,3.886343 5.813117,5.837714 l 13.889167,13.979357 8.199036,8.199036 a 5.3047764,5.3047764 0 0 0 7.690696,0.106587 5.4277619,5.4277619 0 0 0 0,-7.764487 z"
       id="path6"
       style="stroke-width:0.81990361;fill:#ffffff" />
  </g>
</svg>
