<?xml version="1.0" encoding="UTF-8" standalone="no"?>
<svg
   xmlns:dc="http://purl.org/dc/elements/1.1/"
   xmlns:cc="http://creativecommons.org/ns#"
   xmlns:rdf="http://www.w3.org/1999/02/22-rdf-syntax-ns#"
   xmlns:svg="http://www.w3.org/2000/svg"
   xmlns="http://www.w3.org/2000/svg"
   height="100"
   width="100"
   id="svg16"
   xml:space="preserve"
   enable-background="new 0 0 100 100"
   viewBox="0 0 100 100"
   y="0px"
   x="0px"
   version="1.1"><metadata
     id="metadata22"><rdf:RDF><cc:Work
         rdf:about=""><dc:format>image/svg+xml</dc:format><dc:type
           rdf:resource="http://purl.org/dc/dcmitype/StillImage" /><dc:title></dc:title></cc:Work></rdf:RDF></metadata><defs
     id="defs20" /><g
     style="stroke:#000000;stroke-opacity:1"
     transform="translate(-0.18726345,25)"
     id="g834"><g
       style="stroke:#000000;stroke-opacity:1"
       id="g4"
       transform="translate(0.18726345,-25)"><path
         style="stroke:#000000;stroke-opacity:1"
         d="M 93,7 V 93 H 7 V 7 H 93 M 95,5 H 5 v 90 h 90 z"
         id="path2" /></g><path
       style="stroke:#000000;stroke-opacity:1"
       d="M 74.3,13.8 H 25.7 c -0.5,0 -1,-0.4 -1,-1 V 9.1 c 0,-0.5 0.4,-1 1,-1 h 48.7 c 0.5,0 1,0.4 1,1 v 3.7 c -0.1,0.5 -0.5,1 -1.1,1 z"
       id="path6" /><path
       style="stroke:#000000;stroke-opacity:1"
       d="M 74.3,27.8 H 25.7 c -0.5,0 -1,-0.4 -1,-1 v -3.7 c 0,-0.5 0.4,-1 1,-1 h 48.7 c 0.5,0 1,0.4 1,1 v 3.7 c -0.1,0.6 -0.5,1 -1.1,1 z"
       id="path8" /><path
       style="stroke:#000000;stroke-opacity:1"
       d="M 74.3,41.9 H 25.7 c -0.5,0 -1,-0.4 -1,-1 v -3.7 c 0,-0.5 0.4,-1 1,-1 h 48.7 c 0.5,0 1,0.4 1,1 v 3.7 c -0.1,0.5 -0.5,1 -1.1,1 z"
       id="path10" /></g><path
     id="path852"
     d="M 7.5069132,50.045435 V 7.6302638 H 49.922084 92.337255 V 50.045435 92.460606 H 49.922084 7.5069132 Z M 74.808796,67.293816 c 0.840018,-0.350982 1.049276,-1.035258 1.049276,-3.43114 0,-1.944958 -0.147283,-2.547255 -0.732826,-2.996822 -0.230045,-0.176621 -5.924768,-0.229467 -25.224723,-0.234079 l -24.927601,-0.006 -0.493413,0.388118 c -0.490257,0.385637 -0.493412,0.404566 -0.493412,2.960424 0,2.663437 0.06955,2.941096 0.842685,3.363967 0.265569,0.145254 7.499437,0.206506 24.865238,0.210544 20.514497,0.0048 24.592031,-0.03664 25.114776,-0.255057 z m 0.50166,-14.454002 c 0.413488,-0.43967 0.45967,-0.666375 0.517725,-2.541506 0.07181,-2.319247 -0.0083,-2.819159 -0.536663,-3.347484 -0.364488,-0.364488 -0.726944,-0.369763 -25.40418,-0.369763 H 24.852921 l -0.433412,0.407169 c -0.411565,0.386646 -0.433412,0.53471 -0.433412,2.93733 0,2.340044 0.03059,2.562728 0.407169,2.963573 l 0.40717,0.433412 h 25.028017 25.028016 z m -0.50166,-13.635515 c 0.840018,-0.350982 1.049276,-1.035258 1.049276,-3.43114 0,-1.944958 -0.147283,-2.547255 -0.732826,-2.996822 -0.230045,-0.176622 -5.924768,-0.229467 -25.224723,-0.23408 l -24.927601,-0.006 -0.493413,0.388119 c -0.489005,0.384652 -0.493412,0.410442 -0.493412,2.887267 0,1.374533 0.05475,2.641815 0.121657,2.816184 0.320547,0.835332 -0.08872,0.822107 25.679898,0.829849 20.437206,0.0061 24.498369,-0.03499 25.021144,-0.253422 z"
     style="opacity:1;fill:#ffffff;fill-opacity:0.98431373;stroke:none;stroke-width:0.70776737;stroke-miterlimit:4;stroke-dasharray:none;stroke-dashoffset:0;stroke-opacity:1;paint-order:markers stroke fill" /></svg>